<svg t="1705733561921" class="icon" viewBox="0 0 1024 1024" version="1.1" xmlns="http://www.w3.org/2000/svg" p-id="1513" width="200" height="200"><path d="M0 0m170.666667 0l682.666666 0q170.666667 0 170.666667 170.666667l0 682.666666q0 170.666667-170.666667 170.666667l-682.666666 0q-170.666667 0-170.666667-170.666667l0-682.666666q0-170.666667 170.666667-170.666667Z" fill="#0FB37B" p-id="1514"></path><path d="M689.514667 313.962667h-14.933334v367.808a44.373333 44.373333 0 0 1-44.330666 44.330666H357.909333v13.632a28.288 28.288 0 0 0 28.288 28.288h303.253334a28.288 28.288 0 0 0 28.288-28.288V342.250667a28.245333 28.245333 0 0 0-28.224-28.288z" fill="#FFFFFF" p-id="1515"></path><path d="M478.528 710.037333h151.637333a28.288 28.288 0 0 0 28.288-28.288V284.288A28.288 28.288 0 0 0 630.144 256h-202.048v9.365333a27.349333 27.349333 0 0 1 0.149333 2.986667v77.482667a39.872 39.872 0 0 1-39.829333 39.829333h-77.504c-0.810667 0-1.664 0-2.453333-0.106667h-9.834667v296.192a28.288 28.288 0 0 0 28.288 28.288h151.573333z m5.717333-96.128h-98.858666a13.376 13.376 0 0 1 0-26.730666h98.922666a13.376 13.376 0 1 1 0 26.730666z m98.922667-68.266666h-197.781333a13.376 13.376 0 0 1 0-26.730667h197.781333a13.376 13.376 0 0 1 0 26.730667z m-197.781333-99.136h197.781333a13.376 13.376 0 0 1 0 26.730666h-197.781333a13.376 13.376 0 0 1 0-26.730666z" fill="#FFFFFF" p-id="1516"></path><path d="M310.954667 369.621333h77.696a23.744 23.744 0 0 0 23.466666-23.466666v-77.802667a11.904 11.904 0 0 0-11.925333-11.925333 11.584 11.584 0 0 0-8.341333 3.52l-89.344 89.344a11.904 11.904 0 0 0 8.533333 20.309333z" fill="#FFFFFF" p-id="1517"></path></svg>