<svg t="1705733748710" class="icon" viewBox="0 0 1024 1024" version="1.1" xmlns="http://www.w3.org/2000/svg" p-id="9004" width="200" height="200"><path d="M80.587397 1010.702027h851.126356v-611.734794H80.587397z" fill="#FFFFFF" p-id="9005"></path><path d="M112.106959 388.320438v606.418411c0 9.580712-6.298301 15.963178-15.752767 15.963178-9.454466 0-15.766795-6.382466-15.766795-15.963178v-606.404383c0-9.580712 6.312329-15.977205 15.766795-15.977206 9.454466 0 15.752767 6.396493 15.752767 15.963178z m819.606794 0v606.418411c0 9.580712-6.312329 15.963178-15.766794 15.963178-9.454466 0-15.766795-6.382466-15.766795-15.963178v-606.404383c0-9.580712 6.312329-15.977205 15.766795-15.977206 9.454466 0 15.766795 6.396493 15.766794 15.963178z" fill="#FF7E79" p-id="9006"></path><path d="M27.395507 239.377534h957.510137v180.700932l-15.963178 65.718356-47.875507 32.852164h-47.875507l-47.875507-32.852164-31.912329-32.852164-47.875506 49.278246-47.875507 16.426082-47.875507-16.426082-47.875507-49.278246-31.912329 49.278246-47.889534 16.426082-79.787836-16.426082-31.912328-65.718356-31.912329 49.292274-47.889534 32.852164h-31.912329l-47.875507-32.852164-31.912329-49.292274-31.912329 49.292274-47.875506 32.852164H91.234192l-31.926356-32.852164-31.912329-49.292274z" fill="#FBFBFB" p-id="9007"></path><path d="M29.948493 425.703452h190.295671v23.818521c0 47.623014-39.641425 87.320548-87.222356 87.320548h-15.850959c-47.566904 0-87.208329-39.697534-87.208328-87.320548v-23.818521z m190.295671 0H410.511781v23.818521c0 47.623014-39.641425 87.320548-87.208329 87.320548h-15.850959c-47.580932 0-87.222356-39.697534-87.222356-87.320548v-23.818521z" fill="#FFE8E7" p-id="9008"></path><path d="M29.948493 981.356712h951.436274c9.510575 0 15.850959 6.354411 15.850959 15.893041 0 9.524603-6.340384 15.864986-15.850959 15.864987H29.962521C20.437918 1013.11474 14.097534 1006.774356 14.097534 997.249753c0-9.53863 6.340384-15.879014 15.850959-15.879013z" fill="#FF7E79" p-id="9009"></path><path d="M399.766795 425.563178h190.604273v22.794521c0 45.589041-39.697534 83.603288-87.36263 83.603287h-15.893041c-47.651068 0-87.348603-38.014247-87.348602-83.603287v-22.794521z m190.604273 0h190.632329v22.794521c0 45.589041-39.725589 83.603288-87.390685 83.603287H677.733699c-47.651068 0-87.36263-38.014247-87.362631-83.603287v-22.794521z m190.632329 0H971.607671v22.794521c0 45.589041-39.711562 83.603288-87.376657 83.603287H868.366027c-47.651068 0-87.36263-38.014247-87.36263-83.603287v-22.794521z" fill="#FFE8E7" p-id="9010"></path><path d="M822.552548 784.622466H469.006027c-9.636822 0-16.06137-5.330411-16.061369-13.297973 0-7.981589 6.424548-13.297973 16.061369-13.297972h353.532494c9.636822 0 16.06137 5.330411 16.061369 13.297972 0 7.981589-6.424548 13.297973-16.061369 13.297973z" fill="#FF7E79" p-id="9011"></path><path d="M521.664877 598.436822H769.893699c9.314192 0 15.514301 6.214137 15.514301 15.528329v155.143013c0 9.314192-6.20011 15.514301-15.514301 15.514302H521.664877c-9.314192 0-15.514301-6.20011-15.514302-15.514302V613.979178c0-9.314192 6.20011-15.528329 15.514302-15.528329z" fill="#FFE8E7" p-id="9012"></path><path d="M754.393425 784.622466H537.179178a31.112767 31.112767 0 0 1-31.028603-31.028603v-124.128438c0-17.057315 13.95726-31.028603 31.028603-31.028603h217.214247c17.057315 0 31.028603 13.971288 31.028602 31.028603v124.128438a31.126795 31.126795 0 0 1-31.028602 31.028603zM537.179178 753.593863h217.214247v-124.128438H537.179178v124.128438z" fill="#FF7E79" p-id="9013"></path><path d="M202.176877 598.436822H384.561096c9.117808 0 15.205699 6.340384 15.205699 15.850959v380.563287c0 9.510575-6.08789 15.850959-15.205699 15.850959H202.176877c-9.117808 0-15.191671-6.340384-15.191672-15.850959v-380.563287c0-9.510575 6.073863-15.850959 15.191672-15.850959z" fill="#FFE8E7" p-id="9014"></path><path d="M369.369425 1010.702027H217.382575c-16.720658 0-30.39737-14.265863-30.39737-31.701917V630.13874c0-17.436055 13.676712-31.701918 30.39737-31.701918h151.98685c16.70663 0 30.39737 14.265863 30.39737 31.701918v348.833315c0 17.450082-13.69074 31.701918-30.39737 31.701918z m-151.98685-31.701917h151.98685V630.13874H217.382575v348.833315z" fill="#FF7E79" p-id="9015"></path><path d="M299.527014 755.01063c0 8.879342 7.097863 16.075397 15.850959 16.075397 8.767123 0 15.850959-7.196055 15.850959-16.075397 0-8.89337-7.083836-16.089425-15.850959-16.089425-8.753096 0-15.850959 7.196055-15.850959 16.089425zM791.103123 488.013151c-19.035178 35.391123-53.921315 57.905096-95.147835 57.905096-41.240548 0-76.112658-24.127123-95.147836-57.905096-19.021151 35.391123-53.907288 57.905096-95.133808 57.905096-41.240548 0-76.112658-24.127123-95.147836-57.905096-19.021151 35.391123-53.921315 57.905096-95.133808 57.905096-41.240548 0-76.126685-24.127123-95.147836-57.905096-19.035178 33.777973-53.921315 57.905096-95.147835 57.905096-61.846795 0-110.998795-54.678795-110.998795-120.635617V256.420822c0-9.650849 6.340384-16.075397 15.850959-16.075397h951.436274c9.510575 0 15.850959 6.424548 15.850959 16.075397v168.889863c0 65.928767-49.152 120.621589-110.998794 120.621589-41.226521 0-76.112658-24.127123-95.133809-57.905096z m0-70.768219h15.850959v8.051726c0 49.85337 36.471233 88.456767 79.28285 88.456767s79.282849-38.603397 79.282849-88.456767V272.496219H45.813479v152.800439c0 49.85337 36.471233 88.456767 79.28285 88.456767s79.282849-38.603397 79.282849-88.456767v-8.051726h31.715945v8.051726c0 49.85337 36.471233 88.456767 79.296877 88.456767 42.811616 0 79.282849-38.603397 79.282849-88.456767v-8.051726h31.701918v8.051726c0 49.85337 36.471233 88.456767 79.296877 88.456767 42.811616 0 79.282849-38.603397 79.282849-88.456767v-8.051726h31.701918v8.051726c0 49.85337 36.471233 88.456767 79.296877 88.456767 42.811616 0 79.282849-38.603397 79.282849-88.456767v-8.051726h15.850959z" fill="#FF7E79" p-id="9016"></path><path d="M200.283178 425.563178a13.297973 13.297973 0 1 0 26.595945 0 13.297973 13.297973 0 0 0-26.595945 0zM399.766795 425.563178a13.297973 13.297973 0 1 0 26.581917 0 13.297973 13.297973 0 0 0-26.581917 0zM585.938411 425.563178a13.297973 13.297973 0 1 0 26.609973 0 13.297973 13.297973 0 0 0-26.609973 0zM772.124055 425.563178a13.297973 13.297973 0 1 0 26.609972 0 13.297973 13.297973 0 0 0-26.609972 0zM625.495671 755.150904V609.588603c0-9.706959 6.298301-16.187616 15.73874-16.187617 9.454466 0 15.752767 6.480658 15.752767 16.187617v145.562301c0 9.706959-6.312329 16.173589-15.752767 16.173589s-15.73874-6.46663-15.73874-16.173589zM216.035945 253.755616c9.440438 0 15.73874 6.46663 15.73874 16.173589v64.694357c0 9.706959-6.298301 16.173589-15.73874 16.173589-9.454466 0-15.752767-6.46663-15.752767-16.173589v-64.694357c0-9.706959 6.298301-16.173589 15.752767-16.173589z m62.983014-80.867945c9.454466 0 15.752767 6.452603 15.752767 16.173589v64.694356c0 9.706959-6.312329 16.173589-15.752767 16.173589s-15.752767-6.46663-15.752767-16.173589v-64.694356c0-9.706959 6.312329-16.173589 15.752767-16.173589z m62.997041 0c9.454466 0 15.752767 6.452603 15.752767 16.173589v64.694356c0 9.706959-6.312329 16.173589-15.752767 16.173589-9.454466 0-15.752767-6.46663-15.752767-16.173589v-64.694356c0-9.706959 6.312329-16.173589 15.752767-16.173589z m62.983014 80.867945c9.454466 0 15.752767 6.46663 15.752767 16.173589v64.694357c0 9.706959-6.298301 16.173589-15.73874 16.173589-9.454466 0-15.752767-6.46663-15.752767-16.173589v-64.694357c0-9.706959 6.312329-16.173589 15.752767-16.173589z m188.991123 0c9.454466 0 15.752767 6.46663 15.752767 16.173589v64.694357c0 9.706959-6.312329 16.173589-15.752767 16.173589-9.454466 0-15.752767-6.46663-15.752767-16.173589v-64.694357c0-9.706959 6.312329-16.173589 15.752767-16.173589z m188.991123 0c9.440438 0 15.73874 6.46663 15.73874 16.173589v64.694357c0 9.706959-6.312329 16.173589-15.73874 16.173589-9.454466 0-15.752767-6.46663-15.752767-16.173589v-64.694357c0-9.706959 6.298301-16.173589 15.752767-16.173589z m-62.997041-80.867945c9.440438 0 15.73874 6.452603 15.73874 16.173589v64.694356c0 9.706959-6.298301 16.173589-15.73874 16.173589-9.454466 0-15.752767-6.46663-15.752767-16.173589v-64.694356c0-9.706959 6.298301-16.173589 15.752767-16.173589z m-62.997041 0c9.440438 0 15.73874 6.452603 15.73874 16.173589v64.694356c0 9.706959-6.298301 16.173589-15.73874 16.173589-9.454466 0-15.752767-6.46663-15.752767-16.173589v-64.694356c0-9.706959 6.312329-16.173589 15.752767-16.173589z" fill="#FF7E79" p-id="9017"></path><path d="M151.87463 0h721.849863c17.253699 0 31.379288 15.963178 31.379288 35.46126v141.859069c0 19.498082-14.111562 35.46126-31.379288 35.46126H151.87463c-17.253699 0-31.393315-15.963178-31.393315-35.46126V35.46126C120.481315 15.963178 134.606904 0 151.87463 0z" fill="#FFE8E7" p-id="9018"></path><path d="M277.770521 101.670575h15.598465V74.513534h-13.57852v-11.221918h53.416329V99.313973c0 20.872767 1.122192 35.349041 3.591013 43.204383 1.009973 3.366575 1.907726 5.162082 2.80548 5.162082 0.224438 0 0.561096-1.683288 0.785534-4.825424 0.224438-3.142137 0.336658-6.508712 0.336657-10.324165l9.089754 4.376548c-0.448877 10.997479-1.571068 17.955068-3.142137 21.097206-1.234411 2.132164-2.69326 3.254356-4.488767 3.254356-4.825425-0.112219-8.865315-2.69326-12.119671-7.743123-5.610959-8.640877-8.416438-26.708164-8.416439-54.201863V74.513534h-16.945096v27.157041h13.802959v11.334137h-13.802959v49.937535h-11.334137v-49.937535h-15.598465v-11.334137zM259.576986 59.700603c6.84537 5.49874 12.680767 10.997479 17.506192 16.384l-8.079781 8.192c-4.15211-5.162082-10.099726-10.660822-17.73063-16.496219l8.304219-8.079781z m-15.261808 32.431342h25.92263v46.122082c2.805479-2.581041 5.835397-5.49874 8.977534-8.640876l3.142137 12.344109c-6.957589 6.620932-14.251836 12.568548-21.994958 17.84285l-4.488768-10.548603a8.612822 8.612822 0 0 0 2.917699-6.508712V103.353863h-14.476274v-11.221918zM487.381918 74.401315l6.508712 9.201973a121.098521 121.098521 0 0 1-26.147068 16.720657c10.548603 4.488767 20.199452 9.875288 29.064767 15.935123l-6.733151 10.324165a149.251507 149.251507 0 0 0-23.678246-15.374028c0.897753 11.334137 2.468822 19.301699 4.713205 23.902685 4.03989 8.416438 8.640877 12.680767 13.69074 12.905206 1.122192-0.112219 2.132164-1.009973 3.029918-2.80548 0.673315-2.019945 1.34663-6.172055 1.907726-12.568548l11.221917 3.927672c-1.122192 9.53863-3.591014 16.384-7.182027 20.648328-2.69326 2.244384-5.386521 3.478795-8.192 3.478795-9.201973-0.112219-16.832877-5.49874-22.892712-16.159562-6.284274-10.773041-9.426411-33.665753-9.426411-68.453698H395.923288v-11.783014h69.127013v11.334137c0 4.937644 0 9.53863 0.224439 13.802959a102.498192 102.498192 0 0 0 22.107178-15.03737z m90.560877 47.244274a119.990356 119.990356 0 0 1-5.610959 3.703233l-6.508713-8.416438v45.112109h-11.334137V88.653151h23.117151a92.875397 92.875397 0 0 0-4.825425-10.660822H550.224658v-11.221918h43.541041a81.176548 81.176548 0 0 0-2.917699-6.957589l12.792986-2.019945c1.122192 2.69326 2.132164 5.723178 3.029918 8.977534h43.877699v11.221918H627.094795a104.714521 104.714521 0 0 1-5.049863 10.660822h24.014904v60.03726c0 8.977534-3.927671 13.578521-11.558576 13.578521h-11.446356l-2.917699-10.548603 10.773042 0.448876c2.468822 0 3.815452-2.019945 3.815452-5.947616v-29.176986l-8.192 8.079781a66.88263 66.88263 0 0 0-3.815452-4.15211v29.064767h-44.775452V121.645589z m56.782904-5.947616V98.977315h-20.984987c8.079781 5.723178 15.149589 11.334137 20.984987 16.720658z m-22.668274-16.720658h-24.127124l7.518685 6.733151a88.723288 88.723288 0 0 1-14.92515 14.027397h40.96c-4.600986-4.488767-10.099726-9.089753-16.608439-13.802959l7.182028-6.957589z m-25.361535 0h-20.872767V115.024658a83.00011 83.00011 0 0 0 20.872767-16.047343z m24.68822 40.735562v-9.65085h-22.107178v9.65085h22.107178z m-21.770521-51.059726h19.750575c1.795507-3.478795 3.366575-7.069808 4.937644-10.660822H585.573699c1.34663 3.366575 2.69326 6.84537 4.03989 10.660822z m111.209206-1.907726h8.753095V59.588384h11.446357v27.157041h8.640876v10.997479h-8.640876v29.401425c2.69326-1.34663 5.162082-2.805479 7.630904-4.376548v11.334137c-8.304219 4.937644-17.057315 9.089753-26.371507 12.568548l-2.917699-11.221918c3.366575-0.897753 6.84537-1.907726 10.211945-3.142137V97.742904h-8.753095v-10.997479zM744.924932 108.515945a116.427397 116.427397 0 0 1-3.366576 26.259288h7.069808c2.019945-0.224438 3.254356-1.907726 3.815452-4.825425 0.448877-3.029918 0.785534-10.211945 0.897754-21.433863h-8.416438z m-3.703233 27.38148c-2.69326 9.875288-6.620932 18.516164-11.783014 25.810411l-8.528658-7.630904c8.192-11.221918 12.456329-26.932603 12.905206-46.907617V74.962411h32.319123c-0.224438-5.049863-0.224438-10.324164-0.224438-15.822904h10.773041l0.224438 15.822904h12.119671a74.766027 74.766027 0 0 0-7.406465-13.017425l8.528657-3.478794c2.805479 4.03989 5.274301 8.416438 7.294247 13.129644l-7.743123 3.366575h11.334137v10.660822h-23.678247c0.673315 13.241863 1.683288 23.341589 3.029918 30.523616 0.112219 0.785534 0.224438 1.571068 0.448876 2.244384 3.142137-7.294247 5.723178-15.374027 7.630905-24.127123l9.426411 3.927671c-3.366575 13.802959-7.855342 25.473753-13.354083 35.124603 0.897753 2.805479 1.795507 5.162082 2.80548 6.957589 2.468822 4.937644 4.15211 7.406466 5.274301 7.406465 0.897753 0 1.795507-4.825425 2.80548-14.476274l9.650849 5.386521c-2.356603 15.486247-5.835397 23.22937-10.436384 23.22937-4.03989 0-8.304219-3.366575-12.680767-10.099726a54.342137 54.342137 0 0 1-4.376548-8.079781c-6.059836 7.630904-12.905205 13.466301-20.536109 17.73063l-6.957589-9.089753c9.314192-4.713205 17.057315-11.670795 23.341589-20.648329a181.921315 181.921315 0 0 1-2.80548-11.221918c-2.019945-9.201973-3.366575-20.760548-4.03989-34.787945h-21.546082v13.129644h18.740602c0 21.097205-1.009973 33.890192-2.805479 38.491178-1.795507 4.488767-4.937644 6.84537-9.650849 7.069808h-7.518685l-2.581041-8.416438z" fill="#FF7E79" p-id="9019"></path><path d="M869.137534 212.781589h-699.546301c-27.030795 0-47.693151-23.047014-47.693151-53.19189V53.19189C121.884055 23.047014 142.546411 0 169.577205 0h699.546302c27.030795 0 47.693151 23.047014 47.693151 53.19189v106.397809c0 30.144877-20.662356 53.19189-47.693151 53.19189zM178.133918 26.595945c-9.496548 0-15.822904 7.981589-15.822904 19.946959v119.695781c0 11.96537 6.312329 19.946959 15.822904 19.946959h695.94126c9.482521 0 15.808877-7.995616 15.808877-19.946959V46.542904c0-11.96537-6.312329-19.946959-15.808877-19.946959H178.133918z" fill="#FF7E79" p-id="9020"></path></svg>