<svg t="1705733655157" class="icon" viewBox="0 0 1024 1024" version="1.1" xmlns="http://www.w3.org/2000/svg" p-id="2573" width="200" height="200"><path d="M508.49245074 522.52264926m-712.03260448 0a712.03260448 712.03260448 0 1 0 1424.06520749 0 712.03260448 712.03260448 0 1 0-1424.06520749 0Z" fill="#ffffff" p-id="2574"></path><path d="M507.45934323 3.39410085c-276.98010225 0-499.47231574 222.49221355-499.47231766 499.47231578s222.49221355 499.47231574 499.47231766 499.47231574 499.47231574-222.49221355 499.4723158-499.47231574-222.49221355-499.47231574-499.4723158-499.47231578zM307.6704154 121.45119371c22.70328762-9.08131543 45.4065733-22.70328762 68.10986283-27.24394436-22.70328762 36.32525978-45.4065733 81.73183307-63.56920415 136.2197218-22.70328762-13.62197218-40.86591652-36.32525978-40.86591654-54.48788873 4.54065677-22.70328762 18.16262894-40.86591652 36.32525786-54.48788871z m-95.35380522 68.10986091c9.08131543 40.86591652 36.32525978 72.65051956 86.27249171 99.89446391-13.62197218 54.48788871-18.16262894 118.05709285-22.7032876 181.62629698h-199.78892591c9.08131543-108.97577743 59.02854738-208.87024135 136.2197218-281.52076089z m0 626.61072404c-77.19117631-72.65051956-127.13840828-172.54498156-136.2197218-281.52076091h199.78892591c0 63.56920413 9.08131543 127.13840828 22.7032876 181.62629698-49.94723193 27.24394435-77.19117631 63.56920413-86.27249171 99.89446393z m95.35380522 72.65051955c-22.70328762-13.62197218-31.78460112-31.78460112-31.78460111-49.94723199 0-22.70328762 13.62197218-40.86591652 40.86591653-54.48788867 18.16262894 54.48788871 36.32525978 99.89446393 63.56920413 136.21972176-27.24394435-13.62197218-49.94723193-22.70328762-72.65051955-31.7846011z m168.00432482 40.86591651c-40.86591652-22.70328762-77.19117631-86.27249172-99.89446199-172.54498154 31.78460112-9.08131543 68.10986089-13.62197218 99.89446199-18.16263084v190.70761238z m0-258.81747329c-40.86591652 0-77.19117631 9.08131543-118.05709285 22.70328762-9.08131543-49.94723193-13.62197218-104.43512066-18.16262893-154.38235268h131.67906504v131.67906506z m0-199.78892592h-131.67906502c0-54.48788871 9.08131543-104.43512066 18.16262894-154.38235262 36.32525978 13.62197218 77.19117631 18.16262894 118.05709474 22.7032857v131.67906692z m0-204.32958461c-36.32525978 0-68.10986089-9.08131543-99.89446199-18.16262892 22.70328762-86.27249172 59.02854738-149.84169586 99.89446199-172.54498346v190.70761238z m326.92733421-77.19117628c77.19117631 72.65051956 127.13840828 172.54498156 136.21972366 281.52076089h-199.78892781c0-63.56920413-9.08131543-127.13840828-22.70328568-181.62629698 49.94723193-27.24394435 81.73183307-63.56920413 86.27248983-99.89446391z m-95.35380525-68.10986091c22.70328762 13.62197218 31.78460112 31.78460112 31.7846011 49.94723196 0 22.70328762-13.62197218 40.86591652-40.86591652 54.48788872-18.16262894-54.48788871-36.32525978-99.89446393-63.56920415-136.2197237 27.24394435 9.08131543 49.94723193 18.16262894 72.65051957 31.78460302z m-163.46366806-40.86591653c40.86591652 22.70328762 77.19117631 86.27249172 99.89446393 172.54498156-31.78460112 9.08131543-68.10986089 13.62197218-99.89446393 18.16262895v-190.70761051z m0 254.27681464c40.86591652 0 77.19117631-9.08131543 118.05709474-22.7032876 9.08131543 49.94723193 13.62197218 99.89446393 18.16262894 154.38235261h-131.67906502v-131.67906501z m0 199.78892593h131.67906692c0 54.48788871-9.08131543 108.97577743-18.16263083 154.38235262-36.32525978-13.62197218-77.19117631-18.16262894-118.05709286-22.7032857v-131.67906692z m0 395.03719697V738.98060234c36.32525978 0 68.10986089 9.08131543 99.89446393 18.16263084-22.70328762 86.27249172-59.02854738 149.84169586-99.89446393 172.54498154z m163.46366806-40.86591651c-22.70328762 9.08131543-45.4065733 22.70328762-68.1098609 27.24394433 22.70328762-36.32525978 45.4065733-81.73183307 63.56920411-136.21972366 22.70328762 13.62197218 40.86591652 36.32525978 40.86591654 54.4878906 0 22.70328762-13.62197218 36.32525978-36.32525975 54.48788873z m95.35380525-72.65051955c-9.08131543-40.86591652-36.32525978-72.65051956-86.27248983-99.89446393 13.62197218-59.02854738 18.16262894-118.05709285 22.70328568-181.62629698h199.78892781c-9.08131543 108.97577743-54.48788871 208.87024135-136.21972366 281.52076091z m0 0" fill="#0e932e" p-id="2575"></path></svg>